<?xml version="1.0" encoding="UTF-8"?>
<svg width="800px" height="800px" viewBox="0 0 800 800" version="1.1" xmlns="http://www.w3.org/2000/svg">
    <title>Default Plant</title>
    <g stroke="none" stroke-width="1" fill="none" fill-rule="evenodd">
        <rect fill="#E5F6E8" x="0" y="0" width="800" height="800"/>
        <g transform="translate(200,150)" fill="#4CAF50">
            <path d="M200,0 C310,0 400,90 400,200 C400,310 310,400 200,400 C90,400 0,310 0,200 C0,90 90,0 200,0 Z M200,50 C117.5,50 50,117.5 50,200 C50,282.5 117.5,350 200,350 C282.5,350 350,282.5 350,200 C350,117.5 282.5,50 200,50 Z"/>
            <path d="M180,150 C240,150 280,220 280,300 L120,300 C120,220 160,150 220,150 L180,150 Z"/>
            <path d="M200,100 C220,140 220,180 200,220 C180,180 180,140 200,100 Z"/>
        </g>
    </g>
</svg> 