<?xml version="1.0" encoding="iso-8859-1"?>
<!-- Uploaded to: SVG Repo, www.svgrepo.com, Generator: SVG Repo Mixer Tools -->
<svg height="800px" width="800px" version="1.1" id="Layer_1" xmlns="http://www.w3.org/2000/svg" xmlns:xlink="http://www.w3.org/1999/xlink" 
	 viewBox="0 0 511.999 511.999" xml:space="preserve">
<path style="fill:#5EAC24;" d="M236.959,189.699c-0.315-0.734-7.903-18.161-25.16-35.8c-22.979-23.487-52.398-36.406-85.079-37.365
	c-4.476-0.131-8.509,2.698-9.908,6.953c-1.4,4.255,0.165,8.925,3.846,11.477c0.014,0.01,0.077,0.053,0.091,0.063
	c2.63,1.803,64.36,45.283,61.057,143.061c-0.024,0.717,0.028,1.436,0.156,2.142c0.777,4.297,4.513,8.604,11.108,8.534
	c1.03-0.011,2.258-0.108,3.864-0.306c2.37-0.291,5.561-0.801,9.756-1.56c0.001,0,0,0,0,0c14.671-2.653,35.954-7.331,36.853-7.529
	c5.312-1.169,8.75-6.329,7.782-11.683l-13.708-75.799C237.481,191.136,237.26,190.401,236.959,189.699z"/>
<path style="fill:#6DC82A;" d="M392.178,104.555c-2.139-3.526-6.204-5.398-10.275-4.74c-53.927,8.769-84.604,61.416-85.884,63.652
	c-0.527,0.922-0.906,1.92-1.121,2.959l-19.226,92.206c-0.961,4.611,1.386,9.276,5.661,11.251
	c58.635,27.091,60.126,27.091,62.83,27.091c0.045,0,0.091,0,0.136-0.001c2.841-0.037,5.535-1.266,7.424-3.388
	c1.889-2.122,2.8-4.939,2.508-7.765c-5.564-54.153,4.874-97.432,14.613-124.204c10.591-29.119,22.681-45.613,22.79-45.76
	C394.102,112.553,394.318,108.082,392.178,104.555z"/>
<path style="fill:#5EAC24;" d="M342.16,115.478c-29.09,18.682-45.244,46.41-46.165,48.02c-0.527,0.922-0.906,1.92-1.121,2.959
	l-19.227,92.206c-0.961,4.611,1.386,9.275,5.661,11.251c16.14,7.458,27.944,12.858,36.641,16.775
	C313.118,217.511,326.122,159.114,342.16,115.478z"/>
<path style="fill:#4E901E;" d="M237.616,191.888c-0.136-0.752-0.357-1.486-0.658-2.189c-0.315-0.734-7.903-18.161-25.16-35.8
	c-8.897-9.095-18.764-16.597-29.409-22.441c7.116,40.094,10.512,87.882-0.693,129.018c0.267,5.664,0.315,11.532,0.109,17.612
	c-0.024,0.717,0.028,1.436,0.156,2.142c0.777,4.297,4.513,8.604,11.108,8.534c1.03-0.011,2.258-0.108,3.864-0.306
	c2.37-0.291,5.561-0.801,9.756-1.56c0.001,0,0,0,0,0c14.671-2.653,35.954-7.331,36.853-7.529c5.312-1.169,8.75-6.329,7.782-11.683
	L237.616,191.888z"/>
<path style="fill:#6DC82A;" d="M282.785,178.204c-1.01-4.616-25.454-113.49-89.653-152.549c-3.7-2.251-8.424-1.898-11.749,0.881
	c-3.324,2.779-4.51,7.365-2.951,11.407c0.547,1.418,54.281,142.874,18.316,242.034c-1.195,3.149-0.777,6.75,1.195,9.546
	c3.744,5.306,9.731,4.643,14.543,4.111c3.025-0.334,7.291-0.932,12.679-1.777c8.501-1.332,19.898-3.289,33.872-5.816
	c15.474-2.798,28.692-5.32,28.824-5.346c5.314-1.015,8.891-6.032,8.117-11.387l-13.062-90.392
	C282.881,178.678,282.837,178.441,282.785,178.204z"/>
<path style="fill:#5EAC24;" d="M259.078,286.088c15.474-2.798,28.692-5.32,28.824-5.346c5.314-1.015,8.891-6.032,8.117-11.387
	l-13.062-90.392c-0.035-0.24-0.078-0.478-0.131-0.714c-0.597-2.731-9.402-41.968-29.792-81.642
	c-11.635,25.216-20.114,52.962-25.235,82.69c-10.035,58.267-3.765,104.494-3.493,106.431c0.293,2.095,0.822,4.123,1.547,6.072
	C234.285,290.473,245.451,288.552,259.078,286.088z"/>
<path style="fill:#A4E276;" d="M368.444,17.72c0-4.009-2.911-7.641-7.425-9.258c-4.51-1.619-9.774-0.918-13.418,1.786
	c-29.5,21.894-53.281,49.97-70.684,83.447c-13.78,26.509-23.609,56.452-29.214,88.994c-9.505,55.185-3.65,98.377-3.396,100.188
	c0.404,2.881,2.308,5.481,5.23,7.145c30.01,17.075,32.44,17.075,36.463,17.075c0.056,0,0.119-0.001,0.175-0.001
	c3.427-0.037,6.683-1.222,9.003-3.273c2.318-2.052,3.493-4.79,3.247-7.57c-12.658-143.095,48.267-244.199,67.241-271.778
	C367.339,22.04,368.444,20.434,368.444,17.72z"/>
<path style="fill:#FF9478;" d="M171.235,320.135l17.2,169.642c0.835,8.309,7.827,14.634,16.178,14.634h123.478
	c8.35,0,15.343-6.325,16.177-14.634l17.2-169.642H171.235z"/>
<path style="fill:#FF6243;" d="M361.468,320.135H171.235l17.2,169.642c0.835,8.309,7.827,14.634,16.178,14.634h55.31
	c-8.35,0-15.343-6.325-16.177-14.634l-12.411-122.4h125.342L361.468,320.135z"/>
<path style="fill:#96C8EF;" d="M363.551,337.021H169.152c-10.018,0-18.214-8.196-18.214-18.214v-63.901
	c0-10.018,8.196-18.214,18.214-18.214h194.399c10.018,0,18.214,8.196,18.214,18.214v63.901
	C381.764,328.825,373.568,337.021,363.551,337.021z"/>
<g>
	<path style="fill:#5AAAE7;" d="M203.555,318.807v-63.901c0-10.018,8.196-18.214,18.214-18.214h-52.618
		c-10.018,0-18.214,8.196-18.214,18.214v63.901c0,10.018,8.196,18.214,18.214,18.214h52.618
		C211.752,337.021,203.555,328.825,203.555,318.807z"/>
	<path style="fill:#5AAAE7;" d="M350.579,274.36h-53.872c-4.191,0-7.589-3.398-7.589-7.589c0-4.191,3.398-7.589,7.589-7.589h53.872
		c4.192,0,7.589,3.398,7.589,7.589C358.168,270.962,354.771,274.36,350.579,274.36z"/>
</g>
<path style="fill:#FF6243;" d="M314.922,483.689h-47.558c-4.192,0-7.589-3.398-7.589-7.589c0-4.191,3.397-7.589,7.589-7.589h47.558
	c4.192,0,7.589,3.398,7.589,7.589C322.511,480.291,319.114,483.689,314.922,483.689z"/>
<path d="M354.076,403.013c-4.18-0.416-7.894,2.615-8.317,6.785l-1.234,12.171c-0.423,4.17,2.615,7.894,6.785,8.317
	c0.261,0.026,0.519,0.039,0.775,0.039c3.847,0,7.146-2.914,7.542-6.824l1.234-12.171
	C361.284,407.159,358.246,403.436,354.076,403.013z"/>
<path d="M398.725,120.4c4.342-5.813,4.715-13.577,0.952-19.781c-3.76-6.197-10.814-9.452-17.982-8.294
	c-20.753,3.375-38.177,12.796-51.89,23.303c15.807-44.536,34.901-74.903,43.125-86.858c1.929-2.803,4.113-5.979,4.113-11.051
	c0-7.252-4.888-13.691-12.451-16.401c-6.936-2.489-14.792-1.404-20.505,2.834c-30.432,22.585-54.958,51.534-72.895,86.04
	c-2.057,3.958-4.024,7.999-5.911,12.108c-14.211-29.929-36.102-64.213-67.197-83.13c-6.477-3.94-14.74-3.321-20.56,1.542
	c-5.819,4.864-7.894,12.886-5.164,19.962c0.241,0.626,14.853,39.118,23.662,89.546c-20.106-13.253-43.303-20.548-68.074-21.275
	c-7.785-0.24-14.907,4.777-17.337,12.167c-2.433,7.394,0.336,15.653,6.732,20.087c0.01,0.007,0.111,0.077,0.122,0.084
	c1.71,1.173,40.243,28.209,53.479,87.819h-0.783c-14.228,0-25.803,11.575-25.803,25.803v63.9c0,13.184,9.942,24.083,22.721,25.613
	l14.815,146.115c1.228,12.237,11.43,21.465,23.729,21.465h123.477c12.298,0,22.499-9.227,23.729-21.458l4.458-43.976
	c0.423-4.17-2.615-7.893-6.785-8.316c-4.18-0.422-7.894,2.616-8.317,6.786l-4.459,43.983c-0.446,4.449-4.155,7.804-8.626,7.804
	H205.624c-4.47,0-8.18-3.354-8.627-7.811L182.356,344.61h170.014l-4.225,41.672c-0.423,4.17,2.615,7.893,6.785,8.316
	c0.261,0.026,0.519,0.039,0.775,0.039c3.847,0,7.146-2.914,7.542-6.824l4.4-43.393c12.779-1.529,22.721-12.429,22.721-25.613v-63.9
	c0-14.228-11.575-25.803-25.803-25.803h-2.021c2.152-22.625,7.001-44.431,14.445-64.891
	C387.071,136.491,398.645,120.51,398.725,120.4z M186.525,35.211c-0.391-1.011-0.094-2.157,0.737-2.851
	c0.832-0.695,2.013-0.783,2.939-0.222c32.402,19.712,54.243,59.044,67.077,89.394c-5.277,14.069-9.622,28.858-12.989,44.241
	c-0.897,4.094,1.696,8.14,5.791,9.037c4.095,0.896,8.14-1.697,9.037-5.791c5.691-25.994,14.287-50.16,25.548-71.826
	c16.868-32.447,39.905-59.65,68.473-80.852c1.611-1.195,4.216-1.498,6.335-0.737c1.653,0.592,2.397,1.593,2.397,2.114
	c0,0.123-0.01,0.172-0.009,0.172c-0.089,0.325-0.864,1.452-1.433,2.278c-14.609,21.234-62.206,98.311-69.375,208.934H251.32
	c0.452-9.647,1.262-19.298,2.448-28.779c0.52-4.159-2.43-7.951-6.588-8.472c-4.157-0.52-7.951,2.428-8.472,6.588
	c-1.264,10.103-2.127,20.386-2.59,30.663h-19.703C225.21,136.731,186.922,36.239,186.525,35.211z M125.993,128.727
	c-0.913-0.632-1.308-1.812-0.96-2.869c0.347-1.054,1.356-1.758,2.476-1.738c26.847,0.787,51.587,10.312,71.767,27.539
	c3.19,24.871,4.504,51.564,1.887,77.445h-14.702C172.644,161.413,128.001,130.104,125.993,128.727z M364.563,244.283
	c5.859,0,10.625,4.766,10.625,10.625v63.9c0,5.859-4.766,10.625-10.625,10.625h-194.4c-5.859,0-10.625-4.766-10.625-10.625v-63.9
	c0-5.859,4.766-10.625,10.625-10.625L364.563,244.283L364.563,244.283z M347.299,229.104h-41.034
	c2.094-31.189,7.498-59.577,14.444-84.639c0.241-0.202,27.672-29.939,63.417-37.157c1.02-0.205,2.038,0.3,2.575,1.184
	c0.537,0.886,0.485,1.995-0.162,2.86c-0.521,0.706-12.891,17.638-23.816,47.674C354.682,181.128,349.502,204.685,347.299,229.104z"
	/>
</svg>