<?xml version="1.0" encoding="iso-8859-1"?>
<!-- Uploaded to: SVG Repo, www.svgrepo.com, Generator: SVG Repo Mixer Tools -->
<svg height="800px" width="800px" version="1.1" id="Layer_1" xmlns="http://www.w3.org/2000/svg" xmlns:xlink="http://www.w3.org/1999/xlink" 
	 viewBox="0 0 512 512" xml:space="preserve">
<path style="fill:#FF9478;" d="M83.6,242.653l51.778,243.919c2.641,12.44,15.077,17.817,27.421,17.817h186.269
	c12.818,0,24.78-5.377,27.421-17.817l51.778-243.919L83.6,242.653L83.6,242.653z"/>
<g>
	<path style="fill:#FF6243;" d="M337.675,477.315h-80.517c-4.204,0-7.611-3.408-7.611-7.611c0-4.204,3.408-7.611,7.611-7.611h80.517
		c4.205,0,7.611,3.408,7.611,7.611C345.286,473.908,341.88,477.315,337.675,477.315z"/>
	<path style="fill:#FF6243;" d="M428.267,242.652H83.6l51.778,243.919c2.642,12.44,15.078,17.817,27.421,17.817h74.334
		c-8.698-1.828-15.979-8.603-17.936-17.817l-40.777-192.094h238.846L428.267,242.652z"/>
</g>
<path style="fill:#6DC82A;" d="M205.344,33.097c-41.815-22.533-82.697-25.343-84.417-25.452c-4.961-0.311-9.806,1.592-13.225,5.201
	c-3.418,3.61-5.058,8.55-4.476,13.488c4.33,36.714,15.253,68.599,32.467,94.77c14.248,21.663,32.766,39.419,55.039,52.775
	c42.913,25.731,84.566,26.027,86.318,26.027c2.504,0,8.369,0,13.364-4.999c3.275-3.277,5.047-7.763,4.896-12.394
	C292.542,97.596,244.858,54.389,205.344,33.097z"/>
<g>
	<path style="fill:#5EAC24;" d="M290.414,194.908c2.205-2.207,3.71-4.968,4.424-7.947c-52.017-10.355-137.224-57.723-159.24-177.457
		c-8.615-1.443-14.067-1.82-14.671-1.858c-4.961-0.311-9.806,1.592-13.225,5.201c-3.419,3.61-5.058,8.55-4.476,13.488
		c4.33,36.714,15.253,68.599,32.467,94.77c14.248,21.663,32.766,39.419,55.039,52.775c42.913,25.731,84.566,26.027,86.318,26.027
		C279.554,199.906,285.419,199.906,290.414,194.908z"/>
	<path style="fill:#5EAC24;" d="M234.171,52.247c-3.899,4.496-7.589,9.159-11.047,13.998c-21.252,29.741-33.448,65.093-36.329,105.2
		c1.3,0.826,2.611,1.64,3.938,2.435c42.913,25.731,84.566,26.027,86.318,26.027c2.504,0,8.369,0,13.364-4.999
		c3.275-3.277,5.047-7.763,4.896-12.394C293.2,117.766,264.975,77.271,234.171,52.247z"/>
</g>
<path style="fill:#91DC5A;" d="M404.301,12.847c-3.419-3.609-8.253-5.511-13.225-5.202c-1.72,0.109-42.601,2.92-84.416,25.452
	c-39.515,21.293-87.198,64.5-89.967,149.418c-0.151,4.63,1.621,9.117,4.896,12.394c4.995,4.998,10.859,4.999,13.363,4.999h0.001
	c1.772,0,43.412-0.299,86.318-26.027c22.273-13.356,40.791-31.112,55.04-52.776c17.213-26.171,28.136-58.056,32.467-94.77
	C409.359,21.397,407.719,16.456,404.301,12.847z"/>
<path style="fill:#6DC82A;" d="M391.076,7.644c-1.72,0.109-42.601,2.92-84.416,25.452c-39.515,21.293-87.198,64.5-89.967,149.418
	c-0.151,4.63,1.621,9.117,4.896,12.394c4.995,4.998,10.859,4.998,13.363,4.998c0,0,0.001,0,0.002,0c0.469,0,3.732-0.021,9.07-0.529
	C264.873,90.415,358.981,49.944,407.059,38.488c0.651-3.993,1.232-8.039,1.717-12.154c0.583-4.937-1.057-9.878-4.476-13.488
	C400.882,9.238,396.048,7.336,391.076,7.644z"/>
<path style="fill:#96C8EF;" d="M447.859,259.793H64.144c-11.164,0-20.297-9.134-20.297-20.297v-78.838
	c0-11.163,9.134-20.297,20.297-20.297h383.714c11.164,0,20.297,9.134,20.297,20.297v78.838
	C468.156,250.66,459.022,259.793,447.859,259.793z"/>
<g>
	<path style="fill:#5AAAE7;" d="M127.742,239.495v-78.838c0-11.163,9.134-20.297,20.297-20.297H64.144
		c-11.164,0-20.297,9.134-20.297,20.297v78.838c0,11.163,9.134,20.297,20.297,20.297h83.896
		C136.876,259.792,127.742,250.659,127.742,239.495z"/>
	<path style="fill:#5AAAE7;" d="M430.043,232.72H290.149c-4.204,0-7.611-3.408-7.611-7.611s3.408-7.611,7.611-7.611h139.894
		c4.205,0,7.611,3.408,7.611,7.611S434.246,232.72,430.043,232.72z"/>
</g>
<path d="M447.858,132.75h-70.383c0.431-0.59,0.87-1.175,1.293-1.77c2.441-3.423,1.645-8.176-1.778-10.617
	c-3.423-2.441-8.176-1.644-10.617,1.777c-2.602,3.648-5.377,7.205-8.252,10.609H232.319c15.49-50.234,50.575-78.199,77.951-92.952
	c40.345-21.739,79.634-24.451,81.277-24.556c2.735-0.17,5.358,0.867,7.226,2.839c1.872,1.977,2.763,4.66,2.444,7.363
	c-1.201,10.177-2.946,20.1-5.188,29.496c-0.976,4.089,1.547,8.195,5.637,9.17c4.092,0.975,8.195-1.548,9.17-5.637
	c2.38-9.97,4.23-20.483,5.5-31.247c0.849-7.199-1.522-14.348-6.508-19.614c-4.979-5.257-11.985-8.013-19.233-7.564
	c-1.789,0.114-44.301,3.045-87.545,26.347c-14.809,7.98-31.686,19.508-47.018,35.789c-13.203-14.026-29.005-26.051-47.078-35.788
	c-43.27-23.317-85.76-26.235-87.552-26.348c-7.237-0.453-14.245,2.305-19.227,7.565c-4.986,5.264-7.358,12.412-6.508,19.613
	c4.469,37.9,15.796,70.892,33.666,98.061c1.667,2.535,3.422,5.014,5.213,7.462H64.144c-15.389,0-27.909,12.519-27.909,27.909v78.838
	c0,15.389,12.519,27.909,27.909,27.909h16.929l18.738,88.271c0.76,3.579,3.919,6.032,7.438,6.032c0.524,0,1.055-0.055,1.588-0.167
	c4.112-0.873,6.738-4.914,5.865-9.026l-18.067-85.11h318.596l-46.188,217.586c-2.321,10.936-15.876,11.787-19.975,11.787h-186.27
	c-2.918,0-17.593-0.568-19.975-11.787l-11.277-53.123c-0.873-4.112-4.911-6.739-9.026-5.865c-4.112,0.873-6.738,4.914-5.865,9.026
	l11.277,53.123c3.075,14.487,16.76,23.848,34.866,23.848h186.269c18.382,0,31.742-9.138,34.866-23.848l46.86-220.748h17.063
	c15.388,0,27.909-12.519,27.909-27.909v-78.838C475.767,145.269,463.246,132.75,447.858,132.75z M110.786,25.443
	c-0.319-2.704,0.571-5.387,2.443-7.362c1.87-1.974,4.495-3.012,7.219-2.839c1.651,0.105,40.917,2.803,81.286,24.556
	c17.138,9.235,32.023,20.666,44.322,34.009c-12.329,15.741-22.937,35.138-29.603,58.943h-62.554
	c-4.226-5.003-8.212-10.302-11.847-15.827C125.495,91.748,114.976,60.97,110.786,25.443z M460.544,239.495
	c0,6.995-5.69,12.686-12.686,12.686H64.144c-6.995,0-12.686-5.69-12.686-12.686v-78.838c0-6.995,5.69-12.686,12.686-12.686h383.714
	c6.995,0,12.686,5.69,12.686,12.686V239.495z"/>
<path d="M120.432,416.163c4.112-0.873,6.739-4.914,5.865-9.026l-6.476-30.507c-0.873-4.112-4.917-6.738-9.026-5.865
	c-4.112,0.873-6.739,4.914-5.865,9.026l6.476,30.507C113.244,417.448,119.9,416.276,120.432,416.163z"/>
<path d="M398.123,75.879c-3.94-1.469-8.323,0.535-9.789,4.474c-2.471,6.628-5.277,13.077-8.344,19.17
	c-1.89,3.755-0.542,8.699,3.376,10.221c5.202,2.02,8.884-0.72,10.221-3.377c3.316-6.586,6.347-13.549,9.01-20.696
	C404.065,81.73,402.062,77.347,398.123,75.879z"/>
</svg>